# xmcd
#
# Track frame offsets:
#	150
#	14140
#	35347
#	54545
#	70930
#	95052
#	125440
#
# Disc length: 1705 seconds
# Revision: 5
# Processed by: cddbd v1.5.2PL0 Copyright (c) Steve Scherf et al.
# Submitted via: dBpowerAMP V12.0
#
DISCID=6106a707
DTITLE=The Black Keys - Chulahoma
DYEAR=2006
DGENRE=Pop/Rock
TTITLE0=Keep Your Hands Off Her
TTITLE1=Have Mercy On Me
TTITLE2=Work Me
TTITLE3=Meet Me In The City
TTITLE4=Nobody But You
TTITLE5=My Mind Is Ramblin'
TTITLE6=Junior's Widow
EXTD=
EXTT0=
EXTT1=
EXTT2=
EXTT3=
EXTT4=
EXTT5=
EXTT6=
PLAYORDER=
